<svg xmlns="http://www.w3.org/2000/svg" viewBox="0 0 2000 2000"><defs><style>.cls-1{fill:#231f20;}.cls-2{fill:#fff;}.cls-3{fill:#662d91;}.cls-4{fill:#048a78;}</style></defs><g id="Layer_2" data-name="Layer 2"><circle class="cls-1" cx="1000" cy="1000" r="1000"/></g><g id="Layer_1" data-name="Layer 1"><path class="cls-2" d="M1147.56,860.23,657.31,1581.6c-10.3,15.16-9.72,33,1.57,47.73s31.11,23.52,53,23.52h17.47v64.34H368.31L1235.4,441.34H1275L426.51,1689.81H694.44V1679c-27.17-3.84-50.92-16.54-65.53-35.6-17.65-23-18.57-51-2.45-74.69L1108,860.23"/><path class="cls-3" d="M1108,860.23l335.59-493.78c23.51-34.6,66.86-57.47,115.78-61.91V294.17H1364.51V280.48h229.76v50.66H1576.8c-43,0-82.22,18.46-102.4,48.18L1147.56,860.23"/><polygon class="cls-4" points="1631.69 427.65 1622.38 441.34 1512.71 441.34 1149.59 969.4 1133.87 969.4 1502.23 427.65 1631.69 427.65"/><polyline class="cls-3" points="514.48 294.17 514.48 280.49 742.49 280.49 845.43 630.8 924.21 526.89 987.11 526.89 845.58 711.7 814.13 711.7 696.19 294.17 531.95 294.17"/><path class="cls-2" d="M844.4,846.54l-9.3,13.69H736.38L594.85,369.16c-7.61-26.42-37.07-44.87-71.64-44.87h-8.73V294.17H532v16.76c17.47,1.34,34.26,6.64,48,15.26,16,10.06,27.39,24.25,31.92,39.95l138.45,480.4h74.26"/><polyline class="cls-2" points="824.61 846.54 871.84 777.05 1262.3 218.88 1278.02 218.88 887.24 783.52 844.4 846.54"/></g></svg>